<svg xmlns="http://www.w3.org/2000/svg" xmlns:xlink="http://www.w3.org/1999/xlink" width="500" zoomAndPan="magnify" viewBox="0 0 375 374.999991" height="500" preserveAspectRatio="xMidYMid meet" version="1.0"><defs><g/></defs><g fill="#e4e2dd" fill-opacity="1"><g transform="translate(66.48409, 189.057947)"><g><path d="M 36.40625 -59.5625 L 36.40625 -39.8125 L 22.96875 -39.8125 C 22.175781 -39.8125 21.78125 -39.441406 21.78125 -38.703125 L 36.40625 -38.703125 L 36.40625 -18.890625 L 21.78125 -18.890625 L 21.78125 0 L 0.84375 0 L 0.84375 -37.78125 C 0.84375 -42.195312 1.789062 -46.019531 3.6875 -49.25 C 5.59375 -52.488281 8.25 -55.015625 11.65625 -56.828125 C 15.0625 -58.648438 18.945312 -59.5625 23.3125 -59.5625 Z M 36.40625 -59.5625 "/></g></g></g><g fill="#e4e2dd" fill-opacity="1"><g transform="translate(103.750108, 189.057947)"><g><path d="M 27.90625 -21.53125 C 29.15625 -22.207031 29.890625 -23.15625 30.109375 -24.375 C 30.335938 -25.59375 30.066406 -26.695312 29.296875 -27.6875 C 28.535156 -28.6875 27.28125 -29.1875 25.53125 -29.1875 C 24.050781 -29.238281 22.925781 -28.820312 22.15625 -27.9375 C 21.394531 -27.0625 21 -26.039062 20.96875 -24.875 C 20.9375 -23.71875 21.273438 -22.6875 21.984375 -21.78125 C 22.703125 -20.875 23.828125 -20.421875 25.359375 -20.421875 L 49.4375 -20.421875 L 49.4375 0 L 25.359375 0 C 21.953125 0 18.773438 -0.632812 15.828125 -1.90625 C 12.878906 -3.1875 10.269531 -4.960938 8 -7.234375 C 5.726562 -9.503906 3.953125 -12.113281 2.671875 -15.0625 C 1.398438 -18.007812 0.765625 -21.1875 0.765625 -24.59375 C 0.765625 -29.070312 1.769531 -33.15625 3.78125 -36.84375 C 5.800781 -40.53125 8.664062 -43.492188 12.375 -45.734375 C 16.09375 -47.972656 20.503906 -49.117188 25.609375 -49.171875 C 28.273438 -49.171875 30.953125 -48.914062 33.640625 -48.40625 C 36.335938 -47.894531 38.878906 -46.929688 41.265625 -45.515625 C 43.648438 -44.097656 45.632812 -42 47.21875 -39.21875 C 47.894531 -38.03125 48.390625 -36.613281 48.703125 -34.96875 C 49.015625 -33.320312 49.128906 -31.632812 49.046875 -29.90625 C 48.960938 -28.175781 48.609375 -26.554688 47.984375 -25.046875 C 47.359375 -23.546875 46.394531 -22.375 45.09375 -21.53125 Z M 27.90625 -21.53125 "/></g></g></g><g fill="#e4e2dd" fill-opacity="1"><g transform="translate(153.948632, 189.057947)"><g><path d="M 25.4375 -49.171875 C 28.84375 -49.171875 32.019531 -48.53125 34.96875 -47.25 C 37.914062 -45.976562 40.523438 -44.222656 42.796875 -41.984375 C 45.066406 -39.742188 46.835938 -37.132812 48.109375 -34.15625 C 49.390625 -31.175781 50.03125 -27.988281 50.03125 -24.59375 L 50.03125 0 L 29.609375 0 L 29.609375 -24.59375 C 29.609375 -25.726562 29.195312 -26.71875 28.375 -27.5625 C 27.550781 -28.414062 26.570312 -28.84375 25.4375 -28.84375 C 24.25 -28.84375 23.242188 -28.414062 22.421875 -27.5625 C 21.597656 -26.71875 21.1875 -25.726562 21.1875 -24.59375 C 21.1875 -23.457031 21.597656 -22.460938 22.421875 -21.609375 C 23.242188 -20.753906 24.25 -20.328125 25.4375 -20.328125 L 28.421875 -20.328125 L 28.421875 0 L 25.4375 0 C 22.03125 0 18.835938 -0.632812 15.859375 -1.90625 C 12.890625 -3.1875 10.28125 -4.960938 8.03125 -7.234375 C 5.789062 -9.503906 4.03125 -12.113281 2.75 -15.0625 C 1.476562 -18.007812 0.84375 -21.1875 0.84375 -24.59375 C 0.84375 -27.988281 1.476562 -31.175781 2.75 -34.15625 C 4.03125 -37.132812 5.789062 -39.742188 8.03125 -41.984375 C 10.28125 -44.222656 12.890625 -45.976562 15.859375 -47.25 C 18.835938 -48.53125 22.03125 -49.171875 25.4375 -49.171875 Z M 25.4375 -49.171875 "/></g></g></g><g fill="#e4e2dd" fill-opacity="1"><g transform="translate(204.742723, 189.057947)"><g><path d="M 31.140625 -47.734375 L 31.140625 -27.734375 L 23.0625 -27.734375 C 22.207031 -27.734375 21.78125 -27.304688 21.78125 -26.453125 L 21.78125 0 L 0.84375 0 L 0.84375 -25.609375 C 0.84375 -30.085938 1.804688 -33.972656 3.734375 -37.265625 C 5.671875 -40.554688 8.351562 -43.125 11.78125 -44.96875 C 15.21875 -46.8125 19.144531 -47.734375 23.5625 -47.734375 Z M 31.140625 -47.734375 "/></g></g></g><g fill="#e4e2dd" fill-opacity="1"><g transform="translate(93.233553, 243.563954)"><g><path d="M 30.03125 11.71875 L 30.03125 -23.703125 C 30.03125 -24.878906 29.609375 -25.890625 28.765625 -26.734375 C 27.921875 -27.578125 26.910156 -28 25.734375 -28 C 24.492188 -28 23.460938 -27.578125 22.640625 -26.734375 C 21.828125 -25.890625 21.421875 -24.878906 21.421875 -23.703125 C 21.421875 -22.523438 21.828125 -21.515625 22.640625 -20.671875 C 23.460938 -19.828125 24.492188 -19.40625 25.734375 -19.40625 L 28.765625 -19.40625 L 28.765625 1.34375 L 25.734375 1.34375 C 22.296875 1.34375 19.054688 0.695312 16.015625 -0.59375 C 12.984375 -1.882812 10.316406 -3.679688 8.015625 -5.984375 C 5.710938 -8.296875 3.910156 -10.96875 2.609375 -14 C 1.316406 -17.039062 0.671875 -20.273438 0.671875 -23.703125 C 0.671875 -27.191406 1.316406 -30.441406 2.609375 -33.453125 C 3.910156 -36.460938 5.710938 -39.117188 8.015625 -41.421875 C 10.316406 -43.722656 12.984375 -45.519531 16.015625 -46.8125 C 19.054688 -48.113281 22.296875 -48.765625 25.734375 -48.765625 C 29.210938 -48.765625 32.457031 -48.113281 35.46875 -46.8125 C 38.476562 -45.519531 41.117188 -43.722656 43.390625 -41.421875 C 45.671875 -39.117188 47.457031 -36.460938 48.75 -33.453125 C 50.050781 -30.441406 50.703125 -27.191406 50.703125 -23.703125 L 50.703125 11.71875 Z M 30.03125 11.71875 "/></g></g></g><g fill="#e4e2dd" fill-opacity="1"><g transform="translate(144.691669, 243.563954)"><g><path d="M 29.109375 -47.328125 L 50.03125 -47.328125 L 50.03125 -23.109375 C 50.03125 -19.066406 49.335938 -15.507812 47.953125 -12.4375 C 46.578125 -9.375 44.707031 -6.816406 42.34375 -4.765625 C 39.988281 -2.710938 37.347656 -1.179688 34.421875 -0.171875 C 31.492188 0.835938 28.507812 1.34375 25.46875 1.34375 C 22.382812 1.34375 19.378906 0.835938 16.453125 -0.171875 C 13.523438 -1.179688 10.878906 -2.710938 8.515625 -4.765625 C 6.160156 -6.816406 4.289062 -9.375 2.90625 -12.4375 C 1.53125 -15.507812 0.84375 -19.066406 0.84375 -23.109375 L 0.84375 -47.328125 L 21.765625 -47.328125 L 21.765625 -23.953125 C 21.765625 -22.492188 22.15625 -21.398438 22.9375 -20.671875 C 23.726562 -19.941406 24.570312 -19.578125 25.46875 -19.578125 C 26.375 -19.578125 27.207031 -19.941406 27.96875 -20.671875 C 28.726562 -21.398438 29.109375 -22.492188 29.109375 -23.953125 Z M 29.109375 -47.328125 "/></g></g></g><g fill="#e4e2dd" fill-opacity="1"><g transform="translate(195.559265, 243.563954)"><g><path d="M 25.21875 -48.765625 C 28.59375 -48.765625 31.742188 -48.128906 34.671875 -46.859375 C 37.597656 -45.597656 40.1875 -43.851562 42.4375 -41.625 C 44.6875 -39.40625 46.441406 -36.816406 47.703125 -33.859375 C 48.972656 -30.910156 49.609375 -27.75 49.609375 -24.375 L 49.609375 0 L 29.359375 0 L 29.359375 -24.375 C 29.359375 -25.5 28.945312 -26.484375 28.125 -27.328125 C 27.3125 -28.171875 26.34375 -28.59375 25.21875 -28.59375 C 24.039062 -28.59375 23.039062 -28.171875 22.21875 -27.328125 C 21.40625 -26.484375 21 -25.5 21 -24.375 C 21 -23.25 21.40625 -22.265625 22.21875 -21.421875 C 23.039062 -20.578125 24.039062 -20.15625 25.21875 -20.15625 L 28.171875 -20.15625 L 28.171875 0 L 25.21875 0 C 21.84375 0 18.675781 -0.628906 15.71875 -1.890625 C 12.769531 -3.160156 10.1875 -4.921875 7.96875 -7.171875 C 5.75 -9.421875 4.003906 -12.003906 2.734375 -14.921875 C 1.472656 -17.847656 0.84375 -21 0.84375 -24.375 C 0.84375 -27.75 1.472656 -30.910156 2.734375 -33.859375 C 4.003906 -36.816406 5.75 -39.40625 7.96875 -41.625 C 10.1875 -43.851562 12.769531 -45.597656 15.71875 -46.859375 C 18.675781 -48.128906 21.84375 -48.765625 25.21875 -48.765625 Z M 25.21875 -48.765625 "/></g></g></g><g fill="#e4e2dd" fill-opacity="1"><g transform="translate(245.920727, 243.563954)"><g><path d="M 30.875 -47.328125 L 30.875 -27.5 L 22.859375 -27.5 C 22.015625 -27.5 21.59375 -27.078125 21.59375 -26.234375 L 21.59375 0 L 0.84375 0 L 0.84375 -25.390625 C 0.84375 -29.835938 1.796875 -33.691406 3.703125 -36.953125 C 5.617188 -40.210938 8.273438 -42.753906 11.671875 -44.578125 C 15.078125 -46.410156 18.976562 -47.328125 23.375 -47.328125 Z M 30.875 -47.328125 "/></g></g></g><g fill="#e4e2dd" fill-opacity="1"><g transform="translate(277.554814, 243.563954)"><g><path d="M 27.671875 -21.34375 C 28.910156 -22.019531 29.640625 -22.960938 29.859375 -24.171875 C 30.085938 -25.378906 29.820312 -26.472656 29.0625 -27.453125 C 28.300781 -28.441406 27.050781 -28.9375 25.3125 -28.9375 C 23.84375 -28.988281 22.726562 -28.578125 21.96875 -27.703125 C 21.21875 -26.835938 20.828125 -25.828125 20.796875 -24.671875 C 20.765625 -23.523438 21.097656 -22.5 21.796875 -21.59375 C 22.503906 -20.695312 23.617188 -20.25 25.140625 -20.25 L 49.015625 -20.25 L 49.015625 0 L 25.140625 0 C 21.765625 0 18.613281 -0.628906 15.6875 -1.890625 C 12.757812 -3.160156 10.171875 -4.921875 7.921875 -7.171875 C 5.679688 -9.421875 3.925781 -12.003906 2.65625 -14.921875 C 1.394531 -17.847656 0.765625 -21 0.765625 -24.375 C 0.765625 -28.820312 1.757812 -32.875 3.75 -36.53125 C 5.75 -40.1875 8.585938 -43.125 12.265625 -45.34375 C 15.953125 -47.5625 20.328125 -48.703125 25.390625 -48.765625 C 28.035156 -48.765625 30.691406 -48.507812 33.359375 -48 C 36.035156 -47.488281 38.550781 -46.53125 40.90625 -45.125 C 43.269531 -43.71875 45.238281 -41.640625 46.8125 -38.890625 C 47.488281 -37.710938 47.984375 -36.304688 48.296875 -34.671875 C 48.609375 -33.035156 48.71875 -31.359375 48.625 -29.640625 C 48.539062 -27.929688 48.191406 -26.332031 47.578125 -24.84375 C 46.960938 -23.351562 46.003906 -22.1875 44.703125 -21.34375 Z M 27.671875 -21.34375 "/></g></g></g></svg>